{"title":"Ran.1985.SWESUB.DVDRip.XviD.AC3.(5.1)-Zen_Bud","uid":5740358,"size":2229457592,"categoryP":"video","categoryS":"movies","magnet":"?xt=urn:btih:27afacbb741f59a041e7838b4b0cf7a816fc4bc1&amp;dn=Ran.1985.SWESUB.DVDRip.XviD.AC3.%285.1%29-Zen_Bud&amp;tr=udp%3A%2F%2Ftracker.openbittorrent.com%3A80&amp;tr=udp%3A%2F%2Fopen.demonii.com%3A1337&amp;tr=udp%3A%2F%2Ftracker.coppersurfer.tk%3A6969&amp;tr=udp%3A%2F%2Fexodus.desync.com%3A6969","seeders":0,"leechers":1,"uploader":"Zen_Bud","files":-1,"time":1280969884,"description":"General\nComplete name                    : Ran.1985.avi\nFormat                           : AVI\nFile size                        : 2.08 GiB\nDuration                         : 2h 42mn\nOverall bit rate                 : 1 831 Kbps\n\nVideo\n\nFormat                           : MPEG-4 Visual\nCodec ID/Hint                    : XviD\nDuration                         : 2h 42mn\nBit rate                         : 1 500 Kbps\nWidth                            : 720 pixels\nHeight                           : 568 pixels\nDisplay aspect ratio             : 16:9\nStream size                      : 1.70 GiB (82%)\nWriting library                  : XviD 1.1.2 (UTC 2006-11-01)\n\nAudio\n\nFormat                           : AC-3\nDuration                         : 2h 42mn\nBit rate                         : 320 Kbps\nChannel(s)                       : 6 channels\nChannel positions                : Front: L C R, Side: L R, LFE\nSampling rate                    : 48.0 KHz\nStream size                      : 372 MiB (17%)\n\n\n","torrent":{"xt":"urn:btih:27afacbb741f59a041e7838b4b0cf7a816fc4bc1","amp;dn":"Ran.1985.SWESUB.DVDRip.XviD.AC3.%285.1%29-Zen_Bud","amp;tr":["udp%3A%2F%2Ftracker.openbittorrent.com%3A80","udp%3A%2F%2Fopen.demonii.com%3A1337","udp%3A%2F%2Ftracker.coppersurfer.tk%3A6969","udp%3A%2F%2Fexodus.desync.com%3A6969"],"infoHash":"27afacbb741f59a041e7838b4b0cf7a816fc4bc1","infoHashBuffer":{"type":"Buffer","data":[39,175,172,187,116,31,89,160,65,231,131,139,75,12,247,168,22,252,75,193]},"announce":[],"urlList":[]}}